<?xml version="1.0" encoding="UTF-8"?>
<svg version="1.1" xmlns="http://www.w3.org/2000/svg" width="424" height="424">
<path d="M0 0 C139.92 0 279.84 0 424 0 C424 139.92 424 279.84 424 424 C284.08 424 144.16 424 0 424 C0 284.08 0 144.16 0 0 Z " fill="#FDFDFD" transform="translate(0,0)"/>
<path d="M0 0 C4.38157534 3.40978626 7.81476398 7.44386424 10.0078125 12.5625 C10.23486328 14.85253906 10.23486328 14.85253906 10.203125 17.328125 C10.19812988 18.13024414 10.19313477 18.93236328 10.18798828 19.75878906 C10.16978027 20.76651367 10.15157227 21.77423828 10.1328125 22.8125 C10.0915625 26.03 10.0503125 29.2475 10.0078125 32.5625 C16.6078125 32.5625 23.2078125 32.5625 30.0078125 32.5625 C29.94980469 31.139375 29.89179688 29.71625 29.83203125 28.25 C29.7851055 26.35419967 29.73960838 24.4583636 29.6953125 22.5625 C29.65341797 21.62792969 29.61152344 20.69335938 29.56835938 19.73046875 C29.45123372 13.03088142 30.66672374 8.72732186 35.0078125 3.5625 C39.77440643 -1.23021647 43.96249075 -3.7244777 50.7578125 -3.8125 C59.44649595 -3.63302537 64.38381652 -0.47719202 70.46484375 5.48828125 C74.93440433 11.49672851 75.42116536 16.75605254 75.1953125 24 C75.1334375 26.825625 75.0715625 29.65125 75.0078125 32.5625 C81.6078125 32.5625 88.2078125 32.5625 95.0078125 32.5625 C94.88975588 26.25033046 94.88975588 26.25033046 94.73754883 19.93896484 C94.66261654 11.96713649 97.09971975 6.96674677 102.42578125 1.109375 C106.52937967 -2.90303234 110.3043751 -3.65074121 115.8828125 -3.875 C124.35438144 -3.64433847 129.99038281 -0.17504924 136.0078125 5.5625 C139.08919706 9.91894023 140.14323106 13.60390099 140.10546875 18.890625 C140.10224609 19.68984375 140.09902344 20.4890625 140.09570312 21.3125 C140.08732422 22.1375 140.07894531 22.9625 140.0703125 23.8125 C140.06580078 24.65296875 140.06128906 25.4934375 140.05664062 26.359375 C140.04489211 28.42711401 140.02695772 30.49481624 140.0078125 32.5625 C140.62712646 32.54678955 141.24644043 32.5310791 141.88452148 32.51489258 C144.73802255 32.4518597 147.59137641 32.41329563 150.4453125 32.375 C151.90614258 32.33729492 151.90614258 32.33729492 153.39648438 32.29882812 C163.49215878 32.19753373 171.6606104 34.42115614 179.0078125 41.5625 C186.3462247 50.49708977 184.70977849 62.72198901 184.65478516 73.56054688 C184.66156648 75.80193287 184.67047249 78.04331329 184.68133545 80.28468323 C184.70407374 86.35289052 184.69531474 92.4206714 184.67944002 98.48888588 C184.66675283 104.84900662 184.67852898 111.20909164 184.68637085 117.56921387 C184.69604077 128.93194685 184.68053386 140.29446399 184.65507416 151.65715379 C184.63273754 161.94422042 184.63661837 172.23100486 184.65966797 182.51806641 C184.68647005 194.48534508 184.69636206 206.45245258 184.68160665 218.41977167 C184.6738244 224.7469119 184.67273705 231.07385807 184.68928909 237.40098572 C184.70376659 243.35032875 184.69365144 249.29914059 184.66481781 255.24842644 C184.65822463 257.42762814 184.66007426 259.6068748 184.67113113 261.78605843 C184.77166805 283.61896845 184.77166805 283.61896845 176.83203125 293.18359375 C176.12691406 293.78300781 175.42179687 294.38242187 174.6953125 295 C173.99792969 295.61746094 173.30054688 296.23492187 172.58203125 296.87109375 C166.13478706 301.10729517 160.19997949 302.00493651 152.68508911 301.95690918 C151.32559656 301.96604584 151.32559656 301.96604584 149.93863952 301.97536707 C146.91876175 301.99194113 143.89930821 301.98722923 140.87939453 301.98242188 C138.70727096 301.98976542 136.53515128 301.99835249 134.36303711 302.00808716 C128.47456281 302.03028124 122.58622853 302.03323489 116.69771814 302.03133965 C111.77729678 302.03121985 106.85690498 302.03978762 101.93649185 302.04811716 C90.32596794 302.06734354 78.71551593 302.07023776 67.10498047 302.06347656 C55.13746593 302.0568356 43.17031113 302.07970429 31.20285141 302.11679029 C20.91809983 302.14750231 10.63344732 302.15884569 0.34865081 302.15495348 C-5.78963198 302.15288762 -11.92767489 302.15834052 -18.06591415 302.18284607 C-23.8395546 302.20513526 -29.61269439 302.20321677 -35.38633728 302.18291855 C-37.50104792 302.17951245 -39.61579242 302.18458025 -41.73045731 302.19890213 C-53.76112207 302.2747375 -62.87275037 302.28139212 -72.61328125 294.45703125 C-73.21269531 293.76996094 -73.81210938 293.08289063 -74.4296875 292.375 C-75.04714844 291.70082031 -75.66460937 291.02664063 -76.30078125 290.33203125 C-80.5433322 283.3852215 -81.43713159 275.79868603 -81.39332581 267.80944824 C-81.40012248 266.88099327 -81.40691914 265.95253829 -81.41392177 264.99594831 C-81.43277395 261.91319769 -81.43046475 258.83084843 -81.42797852 255.74804688 C-81.43696327 253.52636713 -81.44717316 251.30469205 -81.45851135 249.08302307 C-81.48493618 243.06864758 -81.49204148 237.05440024 -81.49395871 231.03997231 C-81.4960949 227.27923382 -81.50250656 223.51852767 -81.51045036 219.75779724 C-81.53674587 207.30590385 -81.55071345 194.85407259 -81.54845894 182.40215474 C-81.54833907 181.73238801 -81.5482192 181.06262128 -81.5480957 180.37255859 C-81.54797306 179.70196716 -81.54785042 179.03137573 -81.54772406 178.34046334 C-81.54650416 167.46779015 -81.57523503 156.59542836 -81.6175108 145.72284526 C-81.66065671 134.53761104 -81.68076976 123.35249075 -81.67872947 112.16716242 C-81.67796544 105.89584034 -81.68646911 99.6248713 -81.71826363 93.35362244 C-81.7473467 87.45678345 -81.74751792 81.56063424 -81.72571373 75.66377068 C-81.72258154 73.50390043 -81.72963345 71.34398691 -81.7477951 69.18419075 C-81.91743951 47.60745966 -81.91743951 47.60745966 -74.9921875 40.5625 C-68.66672976 35.42244529 -62.872729 32.28875079 -54.59765625 32.3671875 C-53.39560547 32.37363281 -52.19355469 32.38007812 -50.95507812 32.38671875 C-49.70919922 32.40347656 -48.46332031 32.42023438 -47.1796875 32.4375 C-45.28186523 32.45103516 -45.28186523 32.45103516 -43.34570312 32.46484375 C-40.22767186 32.48837606 -37.11002653 32.52125455 -33.9921875 32.5625 C-34.01837158 31.96824219 -34.04455566 31.37398437 -34.0715332 30.76171875 C-34.17645685 28.02892258 -34.24080779 25.29655142 -34.3046875 22.5625 C-34.34658203 21.62792969 -34.38847656 20.69335938 -34.43164062 19.73046875 C-34.57006533 11.81257569 -32.38999961 7.2852588 -27.11328125 1.50390625 C-26.55769531 1.04886719 -26.00210938 0.59382813 -25.4296875 0.125 C-24.87152344 -0.34808594 -24.31335938 -0.82117187 -23.73828125 -1.30859375 C-16.66161719 -5.88388662 -6.73119094 -4.2461993 0 0 Z " fill="#1B84D3" transform="translate(157.9921875,57.4375)"/>
<path d="M0 0 C79.53 0 159.06 0 241 0 C241 50.82 241 101.64 241 154 C161.47 154 81.94 154 0 154 C0 103.18 0 52.36 0 0 Z " fill="#FCFDFD" transform="translate(89,152)"/>
<path d="M0 0 C2.75329021 1.79562405 4.52627461 3.05254922 6 6 C6.15495763 8.24974161 6.25010928 10.50371536 6.31640625 12.7578125 C6.33718735 13.42086395 6.35796844 14.08391541 6.37937927 14.76705933 C6.44479231 16.88626694 6.50372105 19.005599 6.5625 21.125 C6.60569309 22.56121081 6.64930764 23.99740902 6.69335938 25.43359375 C6.80125909 28.95560344 6.90039243 32.47770688 7 36 C16.57 36 26.14 36 36 36 C36.3125 43.1875 36.3125 43.1875 36.38793945 45.42260742 C36.62753645 49.73943417 37.41548091 52.53674441 40 56 C43.03311828 58.359092 46.26360681 58.36228121 50.0390625 58.25 C53.99559402 57.74558164 56.19133408 55.92418962 58.75 53 C60.63724643 48.47060856 60.75292239 43.86487297 61 39 C58.36 38.34 55.72 37.68 53 37 C52.90082206 32.53432237 52.82838775 28.06923493 52.78027344 23.6027832 C52.76020797 22.0847659 52.73294866 20.56682541 52.69824219 19.04907227 C52.64949607 16.86194878 52.62698195 14.67585048 52.609375 12.48828125 C52.5779541 10.51661987 52.5779541 10.51661987 52.54589844 8.50512695 C53.07465973 4.42371518 54.00934625 2.78788086 57 0 C60.2622004 -0.51780959 61.93230345 -0.77909754 65 0 C67.69105198 2.17574416 69.45532928 3.91065856 71 7 C71.08559118 9.17824961 71.10713412 11.35915255 71.09765625 13.5390625 C71.09515869 14.71162598 71.09266113 15.88418945 71.09008789 17.09228516 C71.08098389 18.58808105 71.07187988 20.08387695 71.0625 21.625 C71.041875 26.36875 71.02125 31.1125 71 36 C80.9 36 90.8 36 101 36 C101.33 40.62 101.66 45.24 102 50 C104.75178537 55.01847133 104.75178537 55.01847133 109 58 C113.9011857 58.55335968 116.00795724 58.5327637 120.375 56.1875 C123.30064599 53.74946167 124.80864889 52.1347953 125.44921875 48.3359375 C125.52785156 47.35882813 125.60648438 46.38171875 125.6875 45.375 C125.77386719 44.39273438 125.86023438 43.41046875 125.94921875 42.3984375 C125.97435547 41.21121094 125.97435547 41.21121094 126 40 C124.03177114 38.03177114 120.65191291 38.33751619 118 38 C117.87584752 33.55266701 117.78540543 29.1062674 117.7253418 24.65771484 C117.70028905 23.14646826 117.66623623 21.63534176 117.62280273 20.12451172 C117.5617331 17.94468499 117.53370084 15.76646738 117.51171875 13.5859375 C117.48553467 12.2767334 117.45935059 10.9675293 117.43237305 9.61865234 C118.17987342 4.85329725 119.53756292 3.30363854 123 0 C127.32056721 -0.77152986 129.19119939 -0.52747866 132.875 1.875 C136.3611761 5.3611761 136.16905935 7.6976643 136.31640625 12.5390625 C136.37924805 14.49199219 136.37924805 14.49199219 136.44335938 16.484375 C136.48317299 17.86458045 136.52288522 19.24478883 136.5625 20.625 C136.60569407 22.01303415 136.64930865 23.40105528 136.69335938 24.7890625 C136.79972 28.19260256 136.90174714 31.59621778 137 35 C138.05912598 35.0093457 139.11825195 35.01869141 140.20947266 35.02832031 C144.15715851 35.06833849 148.10407471 35.1341291 152.05126953 35.20751953 C153.75624671 35.23566087 155.46135269 35.25690935 157.16650391 35.27099609 C159.62469089 35.29252137 162.08134048 35.339217 164.5390625 35.390625 C165.29555084 35.39185364 166.05203918 35.39308228 166.83145142 35.39434814 C171.94840018 35.53442876 174.97799139 36.5733122 179 40 C184.8214164 51.6428328 181 65.98291721 181 79 C101.47 79 21.94 79 -60 79 C-60 43.53507014 -60 43.53507014 -55.05078125 37.703125 C-50.26215854 35.02983499 -45.56655625 35.57913199 -40.1875 35.75 C-39.11306641 35.76804688 -38.03863281 35.78609375 -36.93164062 35.8046875 C-34.28684535 35.85170608 -31.64388411 35.9174084 -29 36 C-28.97421875 36.94101563 -28.9484375 37.88203125 -28.921875 38.8515625 C-28.73506388 48.3027606 -28.73506388 48.3027606 -24 56 C-20.5905957 58.58644464 -17.1613551 58.36503115 -13 58 C-9.31226627 56.32375739 -7.14216504 54.42746406 -5 51 C-4.08307039 48.24921116 -3.89113917 46.64051087 -3.9375 43.8125 C-3.958125 42.554375 -3.97875 41.29625 -4 40 C-7.465 38.515 -7.465 38.515 -11 37 C-11.09901748 32.37359847 -11.17153649 27.74781613 -11.21972656 23.12060547 C-11.2398188 21.54725396 -11.26709799 19.97397692 -11.30175781 18.40087891 C-11.35038494 16.13685728 -11.37299135 13.87382427 -11.390625 11.609375 C-11.41127014 10.90818542 -11.43191528 10.20699585 -11.45318604 9.48455811 C-11.45473119 6.10716298 -11.22377793 4.30227531 -9.19042969 1.55566406 C-5.97357687 -0.7289755 -3.85325955 -0.54080836 0 0 Z " fill="#FBFCFD" transform="translate(149,67)"/>
<path d="M0 0 C79.53 0 159.06 0 241 0 C241 25.22333487 241 25.22333487 236.28015429 31.16509378 C231.06911359 34.88267803 227.16006628 35.86265449 220.8089447 35.7484436 C219.91683385 35.75639242 219.024723 35.76434123 218.10557848 35.77253091 C215.13344639 35.79169203 212.16323897 35.76819763 209.19116211 35.74462891 C207.05357658 35.74948771 204.9159956 35.75692924 202.77842712 35.76675415 C196.98498359 35.78553825 191.19221783 35.76675115 185.39882731 35.74008989 C179.33225471 35.71742931 173.26571471 35.72567827 167.19911194 35.72958374 C157.01308134 35.73134857 146.82731724 35.7092101 136.64135742 35.67236328 C124.8680803 35.63001811 113.09519334 35.62301125 101.32185549 35.6354872 C89.99062131 35.64687946 78.6595244 35.6355781 67.32831001 35.61314011 C62.50828066 35.60385585 57.68833535 35.60209705 52.86829948 35.6063118 C47.19234442 35.61008127 41.51678603 35.59384197 35.8409214 35.56219101 C33.758835 35.55371205 31.67670833 35.55199972 29.59461212 35.55757141 C26.75066454 35.56402683 23.90789783 35.54582532 21.06407166 35.52139282 C20.24169177 35.52895147 19.41931189 35.53651012 18.57201141 35.54429781 C12.93398923 35.4587103 9.64043542 34.24463066 5 31 C-2.74325479 21.21904659 0 13.84836419 0 0 Z " fill="#FDFDFD" transform="translate(89,312)"/>
<path d="M0 0 C2.18540955 1.49147034 2.18540955 1.49147034 4 4 C4.39967767 7.00079969 4.55734927 9.63555627 4.53344727 12.63647461 C4.54206284 13.5068486 4.55067841 14.3772226 4.55955505 15.27397156 C4.58225319 18.15039836 4.57546888 21.02585388 4.56640625 23.90234375 C4.57164037 25.90247386 4.57791607 27.90260149 4.58518982 29.90272522 C4.59560132 34.09501763 4.5910221 38.28697077 4.57641602 42.47924805 C4.5592328 47.85088295 4.58271402 53.22144776 4.61790562 58.59296322 C4.63987056 62.72370997 4.63844021 66.85420036 4.6301403 70.98498726 C4.62932018 72.96532934 4.63619522 74.94569013 4.65091133 76.92597771 C4.66833921 79.6960301 4.6538296 82.46415586 4.63110352 85.23413086 C4.64279572 86.05143677 4.65448792 86.86874268 4.66653442 87.71081543 C4.59539187 91.97447078 4.3605686 93.54477882 1.61680603 97.00880432 C-1 99 -1 99 -3.5 99.625 C-7.23757774 98.69060556 -8.62014725 97.004586 -11 94 C-11.71831034 91.07441118 -11.67403426 88.2350672 -11.63110352 85.23413086 C-11.63825882 84.36200455 -11.64541412 83.48987823 -11.65278625 82.59132385 C-11.66966299 79.71529388 -11.65027853 76.84082477 -11.62890625 73.96484375 C-11.62973497 71.96374889 -11.63219446 69.9626541 -11.63621521 67.96156311 C-11.63907241 63.77096021 -11.62437805 59.58089203 -11.59692383 55.39038086 C-11.56281932 50.01764869 -11.5688674 44.64587128 -11.5875864 39.27309322 C-11.5981514 35.14238011 -11.58922346 31.01188941 -11.57420158 26.88119698 C-11.56901713 24.90004703 -11.56950476 22.91887388 -11.57574654 20.93772697 C-11.58119354 18.17013402 -11.56084129 15.40391143 -11.53344727 12.63647461 C-11.53997314 11.81714447 -11.54649902 10.99781433 -11.55322266 10.15365601 C-11.49307405 6.58218091 -11.30672856 4.42402829 -9.18540955 1.49147034 C-5.9733029 -0.7006871 -3.79459168 -0.54208453 0 0 Z " fill="#1D87D3" transform="translate(213,180)"/>
<path d="M0 0 C3.72745978 0.6212433 4.68609572 1.55828792 7 4.5 C7.50120544 7.27662659 7.50120544 7.27662659 7.50170898 10.50610352 C7.51108994 11.71738419 7.52047089 12.92866486 7.53013611 14.176651 C7.51890213 15.48089523 7.50766815 16.78513947 7.49609375 18.12890625 C7.49624877 19.48363828 7.49773824 20.83837076 7.50050354 22.19309998 C7.50188651 25.0285916 7.48934607 27.86357676 7.46655273 30.69897461 C7.43814033 34.33311459 7.44091367 37.96641502 7.45364285 41.60061741 C7.46059732 44.39649121 7.45281404 47.19217093 7.44038582 49.98801994 C7.4336762 51.97943396 7.43801421 53.97087524 7.44248962 55.96229553 C7.42346336 57.7744883 7.42346336 57.7744883 7.40405273 59.62329102 C7.39864975 60.68822281 7.39324677 61.7531546 7.38768005 62.85035706 C7 65.5 7 65.5 5.68959045 67.33995056 C2.80464102 69.32071694 0.37216528 68.91412556 -3 68.5 C-5.76853865 66.40342177 -6.86706531 65.2149912 -7.50793457 61.76806641 C-7.51111694 60.72312012 -7.51429932 59.67817383 -7.51757812 58.6015625 C-7.53018677 57.41353027 -7.54279541 56.22549805 -7.55578613 55.00146484 C-7.54364075 53.08261475 -7.54364075 53.08261475 -7.53125 51.125 C-7.5350769 49.80838379 -7.53890381 48.49176758 -7.54284668 47.13525391 C-7.54873724 44.35104566 -7.54019414 41.56735151 -7.52148438 38.78320312 C-7.49869376 35.21850667 -7.5118194 31.65501482 -7.53577423 28.09036255 C-7.5537233 24.6851457 -7.54114777 21.28025106 -7.53125 17.875 C-7.53934692 16.5957666 -7.54744385 15.3165332 -7.55578613 13.99853516 C-7.54317749 12.81050293 -7.53056885 11.6224707 -7.51757812 10.3984375 C-7.51439575 9.35349121 -7.51121338 8.30854492 -7.50793457 7.23193359 C-6.66896486 2.7195226 -4.46480607 0.74413434 0 0 Z " fill="#1788D5" transform="translate(237,194.5)"/>
<path d="M0 0 C3.00612778 0.98025906 4.02048442 1.45074693 5.875 3.9375 C6.25595093 6.54917908 6.25595093 6.54917908 6.26318359 9.72241211 C6.27264008 10.91051987 6.28209656 12.09862762 6.2918396 13.32273865 C6.28576691 14.60713333 6.27969421 15.89152802 6.2734375 17.21484375 C6.27774277 19.19189049 6.27774277 19.19189049 6.28213501 21.20887756 C6.28655746 23.99897809 6.28013132 26.78879041 6.26611328 29.57885742 C6.24903753 33.15124735 6.25885205 36.7229603 6.27683067 40.29532528 C6.29029518 43.70605198 6.28085944 47.11659783 6.2734375 50.52734375 C6.27951019 51.8097142 6.28558289 53.09208466 6.2918396 54.41331482 C6.28238312 55.60457474 6.27292664 56.79583466 6.26318359 58.02319336 C6.26079681 59.07115585 6.25841003 60.11911835 6.25595093 61.19883728 C5.82305244 64.31095186 5.03371504 65.68857893 2.875 67.9375 C0.9375 68.46875 0.9375 68.46875 -1.125 68.4375 C-2.1459375 68.45296875 -2.1459375 68.45296875 -3.1875 68.46875 C-5.99088361 67.7000803 -6.64181812 66.4026408 -8.125 63.9375 C-8.51940918 61.20556641 -8.51940918 61.20556641 -8.54492188 58.0390625 C-8.56083374 56.85103027 -8.57674561 55.66299805 -8.59313965 54.43896484 C-8.59334106 53.15973145 -8.59354248 51.88049805 -8.59375 50.5625 C-8.60136353 49.24588379 -8.60897705 47.92926758 -8.61682129 46.57275391 C-8.63025375 43.78865023 -8.63184017 41.00483009 -8.62597656 38.22070312 C-8.62007521 34.65588205 -8.65069232 31.09242052 -8.69109344 27.52786255 C-8.72317924 24.12269781 -8.71885419 20.71781554 -8.71875 17.3125 C-8.73514526 16.0332666 -8.75154053 14.7540332 -8.76843262 13.43603516 C-8.7591272 12.24800293 -8.74982178 11.0599707 -8.74023438 9.8359375 C-8.74228882 8.79099121 -8.74434326 7.74604492 -8.74645996 6.66943359 C-8.125 3.9375 -8.125 3.9375 -5.78186035 1.56494141 C-3.125 -0.0625 -3.125 -0.0625 0 0 Z " fill="#1782D2" transform="translate(183.125,195.0625)"/>
<path d="M0 0 C4.04857053 4.02045952 3.42075439 8.30876807 3.45898438 13.70507812 C3.44834961 15.55262695 3.44834961 15.55262695 3.4375 17.4375 C3.45748047 18.66533203 3.47746094 19.89316406 3.49804688 21.15820312 C3.49740234 22.34220703 3.49675781 23.52621094 3.49609375 24.74609375 C3.49794678 25.82560303 3.4997998 26.9051123 3.50170898 28.01733398 C2.8789543 31.71961814 1.66800453 33.39440841 -1 36 C-6.75569555 36.80781692 -6.75569555 36.80781692 -9.68774414 34.90429688 C-11.68458635 32.00655376 -11.40671052 29.51673815 -11.43359375 26.03125 C-11.4388356 25.35453247 -11.44407745 24.67781494 -11.44947815 23.98059082 C-11.45589358 22.55169038 -11.45456744 21.12273709 -11.44604492 19.69384766 C-11.43752798 17.50718292 -11.46630633 15.32312574 -11.49804688 13.13671875 C-11.49965887 11.74739662 -11.49908138 10.35806986 -11.49609375 8.96875 C-11.49794678 7.70482422 -11.4997998 6.44089844 -11.50170898 5.13867188 C-11 2 -11 2 -9.19165039 0.06054688 C-5.82227666 -1.56990422 -3.5399353 -0.9654369 0 0 Z " fill="#1D8DD4" transform="translate(269,212)"/>
<path d="M0 0 C3.74267057 0.62377843 4.69428844 1.52575408 7 4.5 C7.51757812 7.55273438 7.51757812 7.55273438 7.53125 11.09375 C7.53640625 12.37121094 7.5415625 13.64867187 7.546875 14.96484375 C7.53849609 15.62726074 7.53011719 16.28967773 7.52148438 16.97216797 C7.5000595 18.99438448 7.52129739 21.01304961 7.546875 23.03515625 C7.54171875 24.31261719 7.5365625 25.59007812 7.53125 26.90625 C7.52673828 28.07478516 7.52222656 29.24332031 7.51757812 30.44726562 C6.89706618 34.10711531 5.9361099 35.2932592 3 37.5 C0 38 0 38 -3 37.5 C-5.9361099 35.2932592 -6.89706618 34.10711531 -7.51757812 30.44726562 C-7.52208984 29.27873047 -7.52660156 28.11019531 -7.53125 26.90625 C-7.53640625 25.62878906 -7.5415625 24.35132813 -7.546875 23.03515625 C-7.53849609 22.37273926 -7.53011719 21.71032227 -7.52148438 21.02783203 C-7.5000595 19.00561552 -7.52129739 16.98695039 -7.546875 14.96484375 C-7.54171875 13.68738281 -7.5365625 12.40992188 -7.53125 11.09375 C-7.52673828 9.92521484 -7.52222656 8.75667969 -7.51757812 7.55273438 C-6.71810821 2.83737033 -4.69815435 0.78302573 0 0 Z " fill="#167BD3" transform="translate(155,210.5)"/>
<path d="M0 0 C0.66 0 1.32 0 2 0 C2 8.58 2 17.16 2 26 C5.62935547 25.94779297 5.62935547 25.94779297 9.33203125 25.89453125 C11.67519958 25.87113565 14.01835491 25.85291915 16.36157227 25.83520508 C17.99021223 25.82011757 19.61881156 25.79964494 21.24731445 25.77368164 C23.58815535 25.73729551 25.92845919 25.7202738 28.26953125 25.70703125 C28.99775589 25.69154739 29.72598053 25.67606354 30.47627258 25.66011047 C35.55384196 25.65841969 35.55384196 25.65841969 37.9831543 27.51831055 C38.31871338 28.00726807 38.65427246 28.49622559 39 29 C33.60636763 28.88206288 28.21293153 28.75783819 22.81958008 28.62768555 C20.98335753 28.5842718 19.14709292 28.54260161 17.31079102 28.50268555 C14.67711689 28.44513831 12.04365579 28.38140002 9.41015625 28.31640625 C8.17109276 28.29133751 8.17109276 28.29133751 6.90699768 28.26576233 C1.11387171 28.11387171 1.11387171 28.11387171 0 27 C-0.08758003 25.00035018 -0.10696576 22.9976389 -0.09765625 20.99609375 C-0.09443359 19.78115234 -0.09121094 18.56621094 -0.08789062 17.31445312 C-0.07951172 16.03505859 -0.07113281 14.75566406 -0.0625 13.4375 C-0.05798828 12.15423828 -0.05347656 10.87097656 -0.04882812 9.54882812 C-0.03699545 6.36583978 -0.02051068 3.18294238 0 0 Z " fill="#45BADD" transform="translate(285,75)"/>
<path d="M0 0 C0.66 0.33 1.32 0.66 2 1 C0.88266271 2.50571657 -0.24410035 4.00444292 -1.375 5.5 C-2.00148438 6.3353125 -2.62796875 7.170625 -3.2734375 8.03125 C-3.84320313 8.6809375 -4.41296875 9.330625 -5 10 C-5.66 10 -6.32 10 -7 10 C-5.33248852 6.05860922 -2.77289351 3.2107188 0 0 Z " fill="#34AFDB" transform="translate(262,57)"/>
<path d="M0 0 C0 0.66 0 1.32 0 2 C-3 3 -6 4 -9 5 C-6.81610567 0.16423399 -5.20641855 -0.13701101 0 0 Z " fill="#3298D6" transform="translate(267,211)"/>
<path d="M0 0 C0.66 0.33 1.32 0.66 2 1 C-0.31 3.31 -2.62 5.62 -5 8 C-5.33 7.34 -5.66 6.68 -6 6 C-4 4 -2 2 0 0 Z " fill="#237BD3" transform="translate(87,95)"/>
</svg>
